<mxfile host="app.diagrams.net" modified="2023-05-06T19:27:20.148Z" agent="Mozilla/5.0 (Macintosh; Intel Mac OS X 10_15_7) AppleWebKit/605.1.15 (KHTML, like Gecko) Version/16.3 Safari/605.1.15" etag="Mcax2V_ZWuJevZcYI9Sl" version="21.2.9">
  <diagram name="Page-1" id="b_iKIlnXh_qz1zwbO7V7">
    <mxGraphModel dx="3027" dy="2545" grid="1" gridSize="10" guides="1" tooltips="1" connect="1" arrows="1" fold="1" page="1" pageScale="1" pageWidth="850" pageHeight="1100" math="0" shadow="0">
      <root>
        <mxCell id="0" />
        <mxCell id="1" parent="0" />
        <mxCell id="Off83yjZq78bubcRq5ZK-1" value="«Annotation»&lt;br&gt;&lt;b&gt;User Interface&lt;/b&gt;" style="html=1;dropTarget=0;whiteSpace=wrap;" vertex="1" parent="1">
          <mxGeometry x="180" y="-100" width="180" height="90" as="geometry" />
        </mxCell>
        <mxCell id="Off83yjZq78bubcRq5ZK-2" value="" style="shape=module;jettyWidth=8;jettyHeight=4;" vertex="1" parent="Off83yjZq78bubcRq5ZK-1">
          <mxGeometry x="1" width="20" height="20" relative="1" as="geometry">
            <mxPoint x="-27" y="7" as="offset" />
          </mxGeometry>
        </mxCell>
        <mxCell id="Off83yjZq78bubcRq5ZK-66" style="edgeStyle=orthogonalEdgeStyle;rounded=0;orthogonalLoop=1;jettySize=auto;html=1;exitX=0.25;exitY=1;exitDx=0;exitDy=0;entryX=0.773;entryY=0.02;entryDx=0;entryDy=0;entryPerimeter=0;" edge="1" parent="1" source="Off83yjZq78bubcRq5ZK-6" target="Off83yjZq78bubcRq5ZK-61">
          <mxGeometry relative="1" as="geometry" />
        </mxCell>
        <mxCell id="Off83yjZq78bubcRq5ZK-6" value="«Annotation»&lt;br&gt;&lt;b&gt;Credit Cards&lt;/b&gt;" style="html=1;dropTarget=0;whiteSpace=wrap;" vertex="1" parent="1">
          <mxGeometry x="-270" y="240" width="180" height="90" as="geometry" />
        </mxCell>
        <mxCell id="Off83yjZq78bubcRq5ZK-7" value="" style="shape=module;jettyWidth=8;jettyHeight=4;" vertex="1" parent="Off83yjZq78bubcRq5ZK-6">
          <mxGeometry x="1" width="20" height="20" relative="1" as="geometry">
            <mxPoint x="-27" y="7" as="offset" />
          </mxGeometry>
        </mxCell>
        <mxCell id="Off83yjZq78bubcRq5ZK-8" value="«Annotation»&lt;br&gt;&lt;b&gt;Remote Services&lt;/b&gt;" style="html=1;dropTarget=0;whiteSpace=wrap;" vertex="1" parent="1">
          <mxGeometry x="400" y="760" width="180" height="90" as="geometry" />
        </mxCell>
        <mxCell id="Off83yjZq78bubcRq5ZK-9" value="" style="shape=module;jettyWidth=8;jettyHeight=4;" vertex="1" parent="Off83yjZq78bubcRq5ZK-8">
          <mxGeometry x="1" width="20" height="20" relative="1" as="geometry">
            <mxPoint x="-27" y="7" as="offset" />
          </mxGeometry>
        </mxCell>
        <mxCell id="Off83yjZq78bubcRq5ZK-10" value="«Annotation»&lt;br&gt;&lt;b&gt;Technical Support&lt;/b&gt;" style="html=1;dropTarget=0;whiteSpace=wrap;" vertex="1" parent="1">
          <mxGeometry x="-230" y="760" width="180" height="90" as="geometry" />
        </mxCell>
        <mxCell id="Off83yjZq78bubcRq5ZK-11" value="" style="shape=module;jettyWidth=8;jettyHeight=4;" vertex="1" parent="Off83yjZq78bubcRq5ZK-10">
          <mxGeometry x="1" width="20" height="20" relative="1" as="geometry">
            <mxPoint x="-27" y="7" as="offset" />
          </mxGeometry>
        </mxCell>
        <mxCell id="Off83yjZq78bubcRq5ZK-12" value="«Annotation»&lt;br&gt;&lt;b&gt;Bank Website&lt;/b&gt;" style="html=1;dropTarget=0;whiteSpace=wrap;" vertex="1" parent="1">
          <mxGeometry x="-190" y="550" width="180" height="90" as="geometry" />
        </mxCell>
        <mxCell id="Off83yjZq78bubcRq5ZK-13" value="" style="shape=module;jettyWidth=8;jettyHeight=4;" vertex="1" parent="Off83yjZq78bubcRq5ZK-12">
          <mxGeometry x="1" width="20" height="20" relative="1" as="geometry">
            <mxPoint x="-27" y="7" as="offset" />
          </mxGeometry>
        </mxCell>
        <mxCell id="Off83yjZq78bubcRq5ZK-14" value="«Annotation»&lt;br&gt;&lt;b&gt;Banker/Admin&lt;/b&gt;" style="html=1;dropTarget=0;whiteSpace=wrap;" vertex="1" parent="1">
          <mxGeometry x="720" y="50" width="180" height="90" as="geometry" />
        </mxCell>
        <mxCell id="Off83yjZq78bubcRq5ZK-15" value="" style="shape=module;jettyWidth=8;jettyHeight=4;" vertex="1" parent="Off83yjZq78bubcRq5ZK-14">
          <mxGeometry x="1" width="20" height="20" relative="1" as="geometry">
            <mxPoint x="-27" y="7" as="offset" />
          </mxGeometry>
        </mxCell>
        <mxCell id="Off83yjZq78bubcRq5ZK-16" value="«Annotation»&lt;br&gt;&lt;b&gt;Client&lt;/b&gt;" style="html=1;dropTarget=0;whiteSpace=wrap;" vertex="1" parent="1">
          <mxGeometry x="-450" y="50" width="180" height="90" as="geometry" />
        </mxCell>
        <mxCell id="Off83yjZq78bubcRq5ZK-17" value="" style="shape=module;jettyWidth=8;jettyHeight=4;" vertex="1" parent="Off83yjZq78bubcRq5ZK-16">
          <mxGeometry x="1" width="20" height="20" relative="1" as="geometry">
            <mxPoint x="-27" y="7" as="offset" />
          </mxGeometry>
        </mxCell>
        <mxCell id="Off83yjZq78bubcRq5ZK-18" value="«Annotation»&lt;br&gt;&lt;b&gt;Loans&lt;/b&gt;" style="html=1;dropTarget=0;whiteSpace=wrap;" vertex="1" parent="1">
          <mxGeometry x="120" y="460" width="180" height="90" as="geometry" />
        </mxCell>
        <mxCell id="Off83yjZq78bubcRq5ZK-19" value="" style="shape=module;jettyWidth=8;jettyHeight=4;" vertex="1" parent="Off83yjZq78bubcRq5ZK-18">
          <mxGeometry x="1" width="20" height="20" relative="1" as="geometry">
            <mxPoint x="-27" y="7" as="offset" />
          </mxGeometry>
        </mxCell>
        <mxCell id="Off83yjZq78bubcRq5ZK-67" style="edgeStyle=orthogonalEdgeStyle;rounded=0;orthogonalLoop=1;jettySize=auto;html=1;exitX=0.25;exitY=1;exitDx=0;exitDy=0;entryX=0.945;entryY=0.103;entryDx=0;entryDy=0;entryPerimeter=0;" edge="1" parent="1" source="Off83yjZq78bubcRq5ZK-20" target="Off83yjZq78bubcRq5ZK-61">
          <mxGeometry relative="1" as="geometry" />
        </mxCell>
        <mxCell id="Off83yjZq78bubcRq5ZK-20" value="«Annotation»&lt;br&gt;&lt;b&gt;Bills &amp;amp; Payments&lt;/b&gt;" style="html=1;dropTarget=0;whiteSpace=wrap;" vertex="1" parent="1">
          <mxGeometry x="720" y="400" width="180" height="90" as="geometry" />
        </mxCell>
        <mxCell id="Off83yjZq78bubcRq5ZK-21" value="" style="shape=module;jettyWidth=8;jettyHeight=4;" vertex="1" parent="Off83yjZq78bubcRq5ZK-20">
          <mxGeometry x="1" width="20" height="20" relative="1" as="geometry">
            <mxPoint x="-27" y="7" as="offset" />
          </mxGeometry>
        </mxCell>
        <mxCell id="Off83yjZq78bubcRq5ZK-62" style="edgeStyle=orthogonalEdgeStyle;rounded=0;orthogonalLoop=1;jettySize=auto;html=1;entryX=0.5;entryY=0;entryDx=0;entryDy=0;entryPerimeter=0;" edge="1" parent="1" source="Off83yjZq78bubcRq5ZK-22" target="Off83yjZq78bubcRq5ZK-61">
          <mxGeometry relative="1" as="geometry">
            <mxPoint x="-547" y="895" as="targetPoint" />
          </mxGeometry>
        </mxCell>
        <mxCell id="Off83yjZq78bubcRq5ZK-22" value="«Annotation»&lt;br&gt;&lt;b&gt;Safety &amp;amp; Security&lt;/b&gt;" style="html=1;dropTarget=0;whiteSpace=wrap;" vertex="1" parent="1">
          <mxGeometry x="-550" y="460" width="180" height="90" as="geometry" />
        </mxCell>
        <mxCell id="Off83yjZq78bubcRq5ZK-23" value="" style="shape=module;jettyWidth=8;jettyHeight=4;" vertex="1" parent="Off83yjZq78bubcRq5ZK-22">
          <mxGeometry x="1" width="20" height="20" relative="1" as="geometry">
            <mxPoint x="-27" y="7" as="offset" />
          </mxGeometry>
        </mxCell>
        <mxCell id="Off83yjZq78bubcRq5ZK-24" value="«Annotation»&lt;br&gt;&lt;b&gt;Notifications &amp;amp; Reminders&lt;/b&gt;" style="html=1;dropTarget=0;whiteSpace=wrap;" vertex="1" parent="1">
          <mxGeometry x="425" y="410" width="180" height="90" as="geometry" />
        </mxCell>
        <mxCell id="Off83yjZq78bubcRq5ZK-25" value="" style="shape=module;jettyWidth=8;jettyHeight=4;" vertex="1" parent="Off83yjZq78bubcRq5ZK-24">
          <mxGeometry x="1" width="20" height="20" relative="1" as="geometry">
            <mxPoint x="-27" y="7" as="offset" />
          </mxGeometry>
        </mxCell>
        <mxCell id="Off83yjZq78bubcRq5ZK-68" style="edgeStyle=orthogonalEdgeStyle;rounded=0;orthogonalLoop=1;jettySize=auto;html=1;exitX=0;exitY=0.75;exitDx=0;exitDy=0;entryX=0.158;entryY=0.022;entryDx=0;entryDy=0;entryPerimeter=0;" edge="1" parent="1" source="Off83yjZq78bubcRq5ZK-26" target="Off83yjZq78bubcRq5ZK-61">
          <mxGeometry relative="1" as="geometry">
            <mxPoint x="-600" y="900" as="targetPoint" />
          </mxGeometry>
        </mxCell>
        <mxCell id="Off83yjZq78bubcRq5ZK-26" value="«Annotation»&lt;br&gt;&lt;b&gt;Registeration &amp;amp; Login&lt;/b&gt;" style="html=1;dropTarget=0;whiteSpace=wrap;" vertex="1" parent="1">
          <mxGeometry x="-550" y="280" width="180" height="90" as="geometry" />
        </mxCell>
        <mxCell id="Off83yjZq78bubcRq5ZK-27" value="" style="shape=module;jettyWidth=8;jettyHeight=4;" vertex="1" parent="Off83yjZq78bubcRq5ZK-26">
          <mxGeometry x="1" width="20" height="20" relative="1" as="geometry">
            <mxPoint x="-27" y="7" as="offset" />
          </mxGeometry>
        </mxCell>
        <mxCell id="Off83yjZq78bubcRq5ZK-28" value="«Annotation»&lt;br&gt;&lt;b&gt;Admin System&lt;/b&gt;" style="html=1;dropTarget=0;whiteSpace=wrap;" vertex="1" parent="1">
          <mxGeometry x="720" y="260" width="180" height="90" as="geometry" />
        </mxCell>
        <mxCell id="Off83yjZq78bubcRq5ZK-29" value="" style="shape=module;jettyWidth=8;jettyHeight=4;" vertex="1" parent="Off83yjZq78bubcRq5ZK-28">
          <mxGeometry x="1" width="20" height="20" relative="1" as="geometry">
            <mxPoint x="-27" y="7" as="offset" />
          </mxGeometry>
        </mxCell>
        <mxCell id="Off83yjZq78bubcRq5ZK-30" value="" style="endArrow=classic;html=1;rounded=0;exitX=-0.007;exitY=0.928;exitDx=0;exitDy=0;exitPerimeter=0;entryX=0.5;entryY=0;entryDx=0;entryDy=0;" edge="1" parent="1" source="Off83yjZq78bubcRq5ZK-1" target="Off83yjZq78bubcRq5ZK-16">
          <mxGeometry width="50" height="50" relative="1" as="geometry">
            <mxPoint x="-30" y="10" as="sourcePoint" />
            <mxPoint x="20" y="-40" as="targetPoint" />
          </mxGeometry>
        </mxCell>
        <mxCell id="Off83yjZq78bubcRq5ZK-31" value="" style="endArrow=classic;html=1;rounded=0;exitX=1;exitY=1;exitDx=0;exitDy=0;entryX=0.5;entryY=0;entryDx=0;entryDy=0;" edge="1" parent="1" source="Off83yjZq78bubcRq5ZK-1" target="Off83yjZq78bubcRq5ZK-14">
          <mxGeometry width="50" height="50" relative="1" as="geometry">
            <mxPoint x="360" y="30" as="sourcePoint" />
            <mxPoint x="410" y="-20" as="targetPoint" />
          </mxGeometry>
        </mxCell>
        <mxCell id="Off83yjZq78bubcRq5ZK-32" value="Use" style="endArrow=open;endSize=12;dashed=1;html=1;rounded=0;exitX=0.5;exitY=1;exitDx=0;exitDy=0;entryX=0.5;entryY=0;entryDx=0;entryDy=0;" edge="1" parent="1" source="Off83yjZq78bubcRq5ZK-26" target="Off83yjZq78bubcRq5ZK-22">
          <mxGeometry width="160" relative="1" as="geometry">
            <mxPoint x="-210" y="430" as="sourcePoint" />
            <mxPoint x="-50" y="430" as="targetPoint" />
          </mxGeometry>
        </mxCell>
        <mxCell id="Off83yjZq78bubcRq5ZK-33" value="Use" style="endArrow=open;endSize=12;dashed=1;html=1;rounded=0;exitX=0.5;exitY=1;exitDx=0;exitDy=0;entryX=0.5;entryY=0;entryDx=0;entryDy=0;" edge="1" parent="1" source="Off83yjZq78bubcRq5ZK-14" target="Off83yjZq78bubcRq5ZK-28">
          <mxGeometry width="160" relative="1" as="geometry">
            <mxPoint x="650" y="210" as="sourcePoint" />
            <mxPoint x="810" y="210" as="targetPoint" />
          </mxGeometry>
        </mxCell>
        <mxCell id="Off83yjZq78bubcRq5ZK-34" value="Use" style="endArrow=open;endSize=12;dashed=1;html=1;rounded=0;entryX=1.009;entryY=0.641;entryDx=0;entryDy=0;entryPerimeter=0;exitX=0;exitY=1;exitDx=0;exitDy=0;" edge="1" parent="1" source="Off83yjZq78bubcRq5ZK-20" target="Off83yjZq78bubcRq5ZK-24">
          <mxGeometry x="0.0018" width="160" relative="1" as="geometry">
            <mxPoint x="650" y="500" as="sourcePoint" />
            <mxPoint x="160" y="660" as="targetPoint" />
            <mxPoint as="offset" />
          </mxGeometry>
        </mxCell>
        <mxCell id="Off83yjZq78bubcRq5ZK-35" value="Use" style="endArrow=open;endSize=12;dashed=1;html=1;rounded=0;exitX=0.45;exitY=1.007;exitDx=0;exitDy=0;exitPerimeter=0;entryX=0.5;entryY=0;entryDx=0;entryDy=0;" edge="1" parent="1" source="Off83yjZq78bubcRq5ZK-12" target="Off83yjZq78bubcRq5ZK-10">
          <mxGeometry width="160" relative="1" as="geometry">
            <mxPoint x="-130" y="620" as="sourcePoint" />
            <mxPoint x="30" y="620" as="targetPoint" />
          </mxGeometry>
        </mxCell>
        <mxCell id="Off83yjZq78bubcRq5ZK-36" value="Use" style="endArrow=open;endSize=12;dashed=1;html=1;rounded=0;exitX=0;exitY=0.5;exitDx=0;exitDy=0;entryX=1;entryY=0.5;entryDx=0;entryDy=0;" edge="1" parent="1" source="Off83yjZq78bubcRq5ZK-12" target="Off83yjZq78bubcRq5ZK-22">
          <mxGeometry width="160" relative="1" as="geometry">
            <mxPoint x="-240" y="340" as="sourcePoint" />
            <mxPoint x="-80" y="340" as="targetPoint" />
          </mxGeometry>
        </mxCell>
        <mxCell id="Off83yjZq78bubcRq5ZK-37" value="Use" style="endArrow=open;endSize=12;dashed=1;html=1;rounded=0;exitX=0;exitY=1;exitDx=0;exitDy=0;entryX=0.5;entryY=0;entryDx=0;entryDy=0;" edge="1" parent="1" source="Off83yjZq78bubcRq5ZK-16" target="Off83yjZq78bubcRq5ZK-26">
          <mxGeometry width="160" relative="1" as="geometry">
            <mxPoint x="-280" y="250" as="sourcePoint" />
            <mxPoint x="-120" y="250" as="targetPoint" />
          </mxGeometry>
        </mxCell>
        <mxCell id="Off83yjZq78bubcRq5ZK-38" value="Use" style="endArrow=open;endSize=12;dashed=1;html=1;rounded=0;exitX=0.5;exitY=1;exitDx=0;exitDy=0;entryX=0.5;entryY=0;entryDx=0;entryDy=0;" edge="1" parent="1" source="Off83yjZq78bubcRq5ZK-16" target="Off83yjZq78bubcRq5ZK-6">
          <mxGeometry width="160" relative="1" as="geometry">
            <mxPoint x="-100" y="160" as="sourcePoint" />
            <mxPoint x="60" y="160" as="targetPoint" />
          </mxGeometry>
        </mxCell>
        <mxCell id="Off83yjZq78bubcRq5ZK-65" style="edgeStyle=orthogonalEdgeStyle;rounded=0;orthogonalLoop=1;jettySize=auto;html=1;exitX=0;exitY=0.25;exitDx=0;exitDy=0;" edge="1" parent="1" source="Off83yjZq78bubcRq5ZK-39">
          <mxGeometry relative="1" as="geometry">
            <mxPoint x="-580" y="900" as="targetPoint" />
          </mxGeometry>
        </mxCell>
        <mxCell id="Off83yjZq78bubcRq5ZK-39" value="«Annotation»&lt;br&gt;&lt;b&gt;User Information System&lt;/b&gt;" style="html=1;dropTarget=0;whiteSpace=wrap;" vertex="1" parent="1">
          <mxGeometry x="150" y="200" width="180" height="90" as="geometry" />
        </mxCell>
        <mxCell id="Off83yjZq78bubcRq5ZK-40" value="" style="shape=module;jettyWidth=8;jettyHeight=4;" vertex="1" parent="Off83yjZq78bubcRq5ZK-39">
          <mxGeometry x="1" width="20" height="20" relative="1" as="geometry">
            <mxPoint x="-27" y="7" as="offset" />
          </mxGeometry>
        </mxCell>
        <mxCell id="Off83yjZq78bubcRq5ZK-41" value="Use" style="endArrow=open;endSize=12;dashed=1;html=1;rounded=0;exitX=1;exitY=1;exitDx=0;exitDy=0;entryX=0;entryY=0;entryDx=0;entryDy=0;" edge="1" parent="1" source="Off83yjZq78bubcRq5ZK-16" target="Off83yjZq78bubcRq5ZK-39">
          <mxGeometry width="160" relative="1" as="geometry">
            <mxPoint x="-90" y="200" as="sourcePoint" />
            <mxPoint x="70" y="200" as="targetPoint" />
          </mxGeometry>
        </mxCell>
        <mxCell id="Off83yjZq78bubcRq5ZK-42" value="Use" style="endArrow=open;endSize=12;dashed=1;html=1;rounded=0;exitX=0.5;exitY=1;exitDx=0;exitDy=0;entryX=0.5;entryY=0;entryDx=0;entryDy=0;" edge="1" parent="1" source="Off83yjZq78bubcRq5ZK-39" target="Off83yjZq78bubcRq5ZK-18">
          <mxGeometry width="160" relative="1" as="geometry">
            <mxPoint x="70" y="370" as="sourcePoint" />
            <mxPoint x="180" y="460" as="targetPoint" />
          </mxGeometry>
        </mxCell>
        <mxCell id="Off83yjZq78bubcRq5ZK-43" value="Use" style="endArrow=open;endSize=12;dashed=1;html=1;rounded=0;exitX=0;exitY=1;exitDx=0;exitDy=0;entryX=1;entryY=0;entryDx=0;entryDy=0;" edge="1" parent="1" source="Off83yjZq78bubcRq5ZK-14" target="Off83yjZq78bubcRq5ZK-39">
          <mxGeometry width="160" relative="1" as="geometry">
            <mxPoint x="410" y="130" as="sourcePoint" />
            <mxPoint x="500" y="210" as="targetPoint" />
          </mxGeometry>
        </mxCell>
        <mxCell id="Off83yjZq78bubcRq5ZK-44" value="Use" style="endArrow=open;endSize=12;dashed=1;html=1;rounded=0;exitX=0;exitY=0.5;exitDx=0;exitDy=0;entryX=1;entryY=1;entryDx=0;entryDy=0;" edge="1" parent="1" source="Off83yjZq78bubcRq5ZK-28" target="Off83yjZq78bubcRq5ZK-39">
          <mxGeometry width="160" relative="1" as="geometry">
            <mxPoint x="360" y="370" as="sourcePoint" />
            <mxPoint x="520" y="370" as="targetPoint" />
          </mxGeometry>
        </mxCell>
        <mxCell id="Off83yjZq78bubcRq5ZK-45" value="Use" style="endArrow=open;endSize=12;dashed=1;html=1;rounded=0;exitX=1;exitY=1;exitDx=0;exitDy=0;entryX=0;entryY=0;entryDx=0;entryDy=0;" edge="1" parent="1" source="Off83yjZq78bubcRq5ZK-12" target="Off83yjZq78bubcRq5ZK-8">
          <mxGeometry width="160" relative="1" as="geometry">
            <mxPoint x="50" y="660" as="sourcePoint" />
            <mxPoint x="210" y="660" as="targetPoint" />
          </mxGeometry>
        </mxCell>
        <mxCell id="Off83yjZq78bubcRq5ZK-46" value="Use" style="endArrow=open;endSize=12;dashed=1;html=1;rounded=0;exitX=1;exitY=1;exitDx=0;exitDy=0;entryX=-0.001;entryY=0.908;entryDx=0;entryDy=0;entryPerimeter=0;" edge="1" parent="1" source="Off83yjZq78bubcRq5ZK-10" target="Off83yjZq78bubcRq5ZK-8">
          <mxGeometry width="160" relative="1" as="geometry">
            <mxPoint y="720" as="sourcePoint" />
            <mxPoint x="160" y="720" as="targetPoint" />
          </mxGeometry>
        </mxCell>
        <mxCell id="Off83yjZq78bubcRq5ZK-47" value="Use" style="endArrow=open;endSize=12;dashed=1;html=1;rounded=0;exitX=1;exitY=1;exitDx=0;exitDy=0;entryX=0.5;entryY=0;entryDx=0;entryDy=0;" edge="1" parent="1" source="Off83yjZq78bubcRq5ZK-18" target="Off83yjZq78bubcRq5ZK-8">
          <mxGeometry width="160" relative="1" as="geometry">
            <mxPoint x="260" y="590" as="sourcePoint" />
            <mxPoint x="410" y="620" as="targetPoint" />
          </mxGeometry>
        </mxCell>
        <mxCell id="Off83yjZq78bubcRq5ZK-48" value="Use" style="endArrow=open;endSize=12;dashed=1;html=1;rounded=0;exitX=0.75;exitY=0;exitDx=0;exitDy=0;entryX=0.25;entryY=1;entryDx=0;entryDy=0;" edge="1" parent="1" source="Off83yjZq78bubcRq5ZK-8" target="Off83yjZq78bubcRq5ZK-24">
          <mxGeometry width="160" relative="1" as="geometry">
            <mxPoint x="430" y="590" as="sourcePoint" />
            <mxPoint x="590" y="590" as="targetPoint" />
          </mxGeometry>
        </mxCell>
        <mxCell id="Off83yjZq78bubcRq5ZK-49" value="Use" style="endArrow=open;endSize=12;dashed=1;html=1;rounded=0;exitX=1;exitY=0.25;exitDx=0;exitDy=0;entryX=0;entryY=0;entryDx=0;entryDy=0;" edge="1" parent="1" source="Off83yjZq78bubcRq5ZK-18" target="Off83yjZq78bubcRq5ZK-24">
          <mxGeometry width="160" relative="1" as="geometry">
            <mxPoint x="270" y="450" as="sourcePoint" />
            <mxPoint x="430" y="450" as="targetPoint" />
          </mxGeometry>
        </mxCell>
        <mxCell id="Off83yjZq78bubcRq5ZK-51" value="Use" style="endArrow=open;endSize=12;dashed=1;html=1;rounded=0;entryX=1;entryY=1;entryDx=0;entryDy=0;exitX=0;exitY=0;exitDx=0;exitDy=0;" edge="1" parent="1" source="Off83yjZq78bubcRq5ZK-20" target="Off83yjZq78bubcRq5ZK-6">
          <mxGeometry width="160" relative="1" as="geometry">
            <mxPoint x="240" y="400" as="sourcePoint" />
            <mxPoint x="400" y="400" as="targetPoint" />
          </mxGeometry>
        </mxCell>
        <mxCell id="Off83yjZq78bubcRq5ZK-52" value="Use" style="endArrow=open;endSize=12;dashed=1;html=1;rounded=0;entryX=0.558;entryY=0.98;entryDx=0;entryDy=0;exitX=-0.014;exitY=0.641;exitDx=0;exitDy=0;exitPerimeter=0;entryPerimeter=0;" edge="1" parent="1" source="Off83yjZq78bubcRq5ZK-8" target="Off83yjZq78bubcRq5ZK-6">
          <mxGeometry width="160" relative="1" as="geometry">
            <mxPoint x="200" y="700" as="sourcePoint" />
            <mxPoint x="140" y="680" as="targetPoint" />
          </mxGeometry>
        </mxCell>
        <mxCell id="Off83yjZq78bubcRq5ZK-53" value="Use" style="endArrow=open;endSize=12;dashed=1;html=1;rounded=0;entryX=1;entryY=0;entryDx=0;entryDy=0;exitX=0;exitY=1;exitDx=0;exitDy=0;" edge="1" parent="1" source="Off83yjZq78bubcRq5ZK-28" target="Off83yjZq78bubcRq5ZK-22">
          <mxGeometry width="160" relative="1" as="geometry">
            <mxPoint x="-320" y="410" as="sourcePoint" />
            <mxPoint x="-160" y="410" as="targetPoint" />
          </mxGeometry>
        </mxCell>
        <mxCell id="Off83yjZq78bubcRq5ZK-54" value="Use" style="endArrow=open;endSize=12;dashed=1;html=1;rounded=0;exitX=1;exitY=0;exitDx=0;exitDy=0;entryX=0;entryY=0.5;entryDx=0;entryDy=0;" edge="1" parent="1" source="Off83yjZq78bubcRq5ZK-6" target="Off83yjZq78bubcRq5ZK-39">
          <mxGeometry width="160" relative="1" as="geometry">
            <mxPoint x="20" y="330" as="sourcePoint" />
            <mxPoint x="180" y="330" as="targetPoint" />
          </mxGeometry>
        </mxCell>
        <mxCell id="Off83yjZq78bubcRq5ZK-55" value="Use" style="endArrow=open;endSize=12;dashed=1;html=1;rounded=0;exitX=0;exitY=0;exitDx=0;exitDy=0;entryX=1;entryY=1;entryDx=0;entryDy=0;" edge="1" parent="1" source="Off83yjZq78bubcRq5ZK-12" target="Off83yjZq78bubcRq5ZK-26">
          <mxGeometry width="160" relative="1" as="geometry">
            <mxPoint x="-360" y="400" as="sourcePoint" />
            <mxPoint x="-200" y="400" as="targetPoint" />
          </mxGeometry>
        </mxCell>
        <mxCell id="Off83yjZq78bubcRq5ZK-56" value="Use" style="endArrow=open;endSize=12;dashed=1;html=1;rounded=0;exitX=0;exitY=0.25;exitDx=0;exitDy=0;entryX=0.999;entryY=0.667;entryDx=0;entryDy=0;entryPerimeter=0;" edge="1" parent="1" source="Off83yjZq78bubcRq5ZK-18" target="Off83yjZq78bubcRq5ZK-12">
          <mxGeometry width="160" relative="1" as="geometry">
            <mxPoint x="-30" y="630" as="sourcePoint" />
            <mxPoint x="130" y="630" as="targetPoint" />
          </mxGeometry>
        </mxCell>
        <mxCell id="Off83yjZq78bubcRq5ZK-57" value="Use" style="endArrow=open;endSize=12;dashed=1;html=1;rounded=0;exitX=1;exitY=0;exitDx=0;exitDy=0;entryX=0;entryY=1;entryDx=0;entryDy=0;" edge="1" parent="1" source="Off83yjZq78bubcRq5ZK-10" target="Off83yjZq78bubcRq5ZK-24">
          <mxGeometry width="160" relative="1" as="geometry">
            <mxPoint y="670" as="sourcePoint" />
            <mxPoint x="160" y="670" as="targetPoint" />
          </mxGeometry>
        </mxCell>
        <mxCell id="Off83yjZq78bubcRq5ZK-58" value="Use" style="endArrow=open;endSize=12;dashed=1;html=1;rounded=0;exitX=1;exitY=0.5;exitDx=0;exitDy=0;entryX=0.016;entryY=0.588;entryDx=0;entryDy=0;entryPerimeter=0;" edge="1" parent="1" source="Off83yjZq78bubcRq5ZK-26" target="Off83yjZq78bubcRq5ZK-24">
          <mxGeometry width="160" relative="1" as="geometry">
            <mxPoint x="-400" y="630" as="sourcePoint" />
            <mxPoint x="370" y="470" as="targetPoint" />
          </mxGeometry>
        </mxCell>
        <mxCell id="Off83yjZq78bubcRq5ZK-59" value="Use" style="endArrow=open;endSize=12;dashed=1;html=1;rounded=0;exitX=1;exitY=0;exitDx=0;exitDy=0;entryX=0;entryY=1;entryDx=0;entryDy=0;" edge="1" parent="1" source="Off83yjZq78bubcRq5ZK-12" target="Off83yjZq78bubcRq5ZK-39">
          <mxGeometry width="160" relative="1" as="geometry">
            <mxPoint y="340" as="sourcePoint" />
            <mxPoint x="160" y="340" as="targetPoint" />
          </mxGeometry>
        </mxCell>
        <mxCell id="Off83yjZq78bubcRq5ZK-60" value="Use" style="endArrow=open;endSize=12;dashed=1;html=1;rounded=0;exitX=0;exitY=0;exitDx=0;exitDy=0;entryX=1;entryY=1;entryDx=0;entryDy=0;" edge="1" parent="1" source="Off83yjZq78bubcRq5ZK-10" target="Off83yjZq78bubcRq5ZK-22">
          <mxGeometry width="160" relative="1" as="geometry">
            <mxPoint x="-370" y="680" as="sourcePoint" />
            <mxPoint x="-210" y="680" as="targetPoint" />
          </mxGeometry>
        </mxCell>
        <mxCell id="Off83yjZq78bubcRq5ZK-61" value="Database" style="strokeWidth=2;html=1;shape=mxgraph.flowchart.database;whiteSpace=wrap;" vertex="1" parent="1">
          <mxGeometry x="-630" y="900" width="160" height="90" as="geometry" />
        </mxCell>
      </root>
    </mxGraphModel>
  </diagram>
</mxfile>
